<mxfile host="app.diagrams.net" modified="2021-02-22T13:06:40.287Z" agent="5.0 (X11; Linux x86_64) AppleWebKit/537.36 (KHTML, like Gecko) Chrome/88.0.4324.182 Safari/537.36" etag="zpKsaNrCjnN5hEYs_Ef_" version="14.4.2" type="github">
  <diagram name="Page-1" id="099fd60b-425b-db50-ffb0-6b813814b670">
    <mxGraphModel dx="2200" dy="737" grid="1" gridSize="10" guides="1" tooltips="1" connect="1" arrows="1" fold="1" page="1" pageScale="1" pageWidth="850" pageHeight="1100" background="#ffffff" math="0" shadow="0">
      <root>
        <mxCell id="0" />
        <mxCell id="1" parent="0" />
        <mxCell id="b8vQDxdQnmlJzjC5TJmX-10" value="" style="rounded=0;whiteSpace=wrap;html=1;" vertex="1" parent="1">
          <mxGeometry x="360" y="360" width="120" height="300" as="geometry" />
        </mxCell>
        <mxCell id="b8vQDxdQnmlJzjC5TJmX-11" value="" style="rounded=0;whiteSpace=wrap;html=1;" vertex="1" parent="1">
          <mxGeometry x="240" y="360" width="120" height="300" as="geometry" />
        </mxCell>
        <mxCell id="b8vQDxdQnmlJzjC5TJmX-72" style="edgeStyle=orthogonalEdgeStyle;rounded=0;orthogonalLoop=1;jettySize=auto;html=1;" edge="1" parent="1" source="b8vQDxdQnmlJzjC5TJmX-12">
          <mxGeometry relative="1" as="geometry">
            <mxPoint x="720" y="510" as="targetPoint" />
          </mxGeometry>
        </mxCell>
        <mxCell id="b8vQDxdQnmlJzjC5TJmX-12" value="" style="rounded=0;whiteSpace=wrap;html=1;" vertex="1" parent="1">
          <mxGeometry x="480" y="360" width="120" height="300" as="geometry" />
        </mxCell>
        <mxCell id="b8vQDxdQnmlJzjC5TJmX-15" value="" style="rounded=0;whiteSpace=wrap;html=1;" vertex="1" parent="1">
          <mxGeometry x="240" y="570" width="120" height="90" as="geometry" />
        </mxCell>
        <mxCell id="b8vQDxdQnmlJzjC5TJmX-16" value="А2" style="text;html=1;strokeColor=none;fillColor=none;align=center;verticalAlign=middle;whiteSpace=wrap;rounded=0;" vertex="1" parent="1">
          <mxGeometry x="280" y="580" width="40" height="20" as="geometry" />
        </mxCell>
        <mxCell id="b8vQDxdQnmlJzjC5TJmX-17" value="А1" style="text;html=1;strokeColor=none;fillColor=none;align=center;verticalAlign=middle;whiteSpace=wrap;rounded=0;" vertex="1" parent="1">
          <mxGeometry x="280" y="605" width="40" height="20" as="geometry" />
        </mxCell>
        <mxCell id="b8vQDxdQnmlJzjC5TJmX-18" value="А0" style="text;html=1;strokeColor=none;fillColor=none;align=center;verticalAlign=middle;whiteSpace=wrap;rounded=0;" vertex="1" parent="1">
          <mxGeometry x="280" y="630" width="40" height="20" as="geometry" />
        </mxCell>
        <mxCell id="b8vQDxdQnmlJzjC5TJmX-19" value="x0" style="text;html=1;strokeColor=none;fillColor=none;align=center;verticalAlign=middle;whiteSpace=wrap;rounded=0;" vertex="1" parent="1">
          <mxGeometry x="270" y="360" width="40" height="20" as="geometry" />
        </mxCell>
        <mxCell id="b8vQDxdQnmlJzjC5TJmX-20" value="x1" style="text;html=1;strokeColor=none;fillColor=none;align=center;verticalAlign=middle;whiteSpace=wrap;rounded=0;" vertex="1" parent="1">
          <mxGeometry x="270" y="380" width="40" height="20" as="geometry" />
        </mxCell>
        <mxCell id="b8vQDxdQnmlJzjC5TJmX-23" value="x2" style="text;html=1;strokeColor=none;fillColor=none;align=center;verticalAlign=middle;whiteSpace=wrap;rounded=0;" vertex="1" parent="1">
          <mxGeometry x="270" y="400" width="40" height="20" as="geometry" />
        </mxCell>
        <mxCell id="b8vQDxdQnmlJzjC5TJmX-25" value="x5" style="text;html=1;strokeColor=none;fillColor=none;align=center;verticalAlign=middle;whiteSpace=wrap;rounded=0;" vertex="1" parent="1">
          <mxGeometry x="270" y="490" width="40" height="20" as="geometry" />
        </mxCell>
        <mxCell id="b8vQDxdQnmlJzjC5TJmX-26" value="x3" style="text;html=1;strokeColor=none;fillColor=none;align=center;verticalAlign=middle;whiteSpace=wrap;rounded=0;" vertex="1" parent="1">
          <mxGeometry x="270" y="430" width="40" height="20" as="geometry" />
        </mxCell>
        <mxCell id="b8vQDxdQnmlJzjC5TJmX-27" value="x4" style="text;html=1;strokeColor=none;fillColor=none;align=center;verticalAlign=middle;whiteSpace=wrap;rounded=0;" vertex="1" parent="1">
          <mxGeometry x="270" y="460" width="40" height="20" as="geometry" />
        </mxCell>
        <mxCell id="b8vQDxdQnmlJzjC5TJmX-29" value="x7" style="text;html=1;strokeColor=none;fillColor=none;align=center;verticalAlign=middle;whiteSpace=wrap;rounded=0;" vertex="1" parent="1">
          <mxGeometry x="270" y="540" width="40" height="20" as="geometry" />
        </mxCell>
        <mxCell id="b8vQDxdQnmlJzjC5TJmX-30" value="x6" style="text;html=1;strokeColor=none;fillColor=none;align=center;verticalAlign=middle;whiteSpace=wrap;rounded=0;" vertex="1" parent="1">
          <mxGeometry x="270" y="510" width="40" height="20" as="geometry" />
        </mxCell>
        <mxCell id="b8vQDxdQnmlJzjC5TJmX-32" style="edgeStyle=orthogonalEdgeStyle;rounded=0;orthogonalLoop=1;jettySize=auto;html=1;exitX=0.5;exitY=1;exitDx=0;exitDy=0;" edge="1" parent="1" source="b8vQDxdQnmlJzjC5TJmX-26" target="b8vQDxdQnmlJzjC5TJmX-26">
          <mxGeometry relative="1" as="geometry" />
        </mxCell>
        <mxCell id="b8vQDxdQnmlJzjC5TJmX-33" style="edgeStyle=orthogonalEdgeStyle;rounded=0;orthogonalLoop=1;jettySize=auto;html=1;exitX=0.5;exitY=1;exitDx=0;exitDy=0;" edge="1" parent="1" source="b8vQDxdQnmlJzjC5TJmX-23" target="b8vQDxdQnmlJzjC5TJmX-23">
          <mxGeometry relative="1" as="geometry" />
        </mxCell>
        <mxCell id="b8vQDxdQnmlJzjC5TJmX-49" value="" style="edgeStyle=orthogonalEdgeStyle;rounded=0;orthogonalLoop=1;jettySize=auto;html=1;exitX=1;exitY=0.5;exitDx=0;exitDy=0;" edge="1" parent="1" source="b8vQDxdQnmlJzjC5TJmX-37" target="b8vQDxdQnmlJzjC5TJmX-48">
          <mxGeometry relative="1" as="geometry">
            <Array as="points">
              <mxPoint x="45" y="510" />
            </Array>
          </mxGeometry>
        </mxCell>
        <mxCell id="b8vQDxdQnmlJzjC5TJmX-58" style="edgeStyle=orthogonalEdgeStyle;rounded=0;orthogonalLoop=1;jettySize=auto;html=1;entryX=0;entryY=0.5;entryDx=0;entryDy=0;" edge="1" parent="1" source="b8vQDxdQnmlJzjC5TJmX-37" target="b8vQDxdQnmlJzjC5TJmX-30">
          <mxGeometry relative="1" as="geometry" />
        </mxCell>
        <mxCell id="b8vQDxdQnmlJzjC5TJmX-59" style="edgeStyle=orthogonalEdgeStyle;rounded=0;orthogonalLoop=1;jettySize=auto;html=1;entryX=0;entryY=0.5;entryDx=0;entryDy=0;" edge="1" parent="1" source="b8vQDxdQnmlJzjC5TJmX-37" target="b8vQDxdQnmlJzjC5TJmX-25">
          <mxGeometry relative="1" as="geometry" />
        </mxCell>
        <mxCell id="b8vQDxdQnmlJzjC5TJmX-60" style="edgeStyle=orthogonalEdgeStyle;rounded=0;orthogonalLoop=1;jettySize=auto;html=1;entryX=0;entryY=0.5;entryDx=0;entryDy=0;" edge="1" parent="1" source="b8vQDxdQnmlJzjC5TJmX-37" target="b8vQDxdQnmlJzjC5TJmX-20">
          <mxGeometry relative="1" as="geometry" />
        </mxCell>
        <mxCell id="b8vQDxdQnmlJzjC5TJmX-37" value="&lt;b&gt;D&lt;/b&gt;" style="text;html=1;strokeColor=none;fillColor=none;align=center;verticalAlign=middle;whiteSpace=wrap;rounded=0;" vertex="1" parent="1">
          <mxGeometry x="-220" y="500" width="40" height="20" as="geometry" />
        </mxCell>
        <mxCell id="b8vQDxdQnmlJzjC5TJmX-39" value="" style="rounded=0;whiteSpace=wrap;html=1;" vertex="1" parent="1">
          <mxGeometry x="55" y="310" width="120" height="10" as="geometry" />
        </mxCell>
        <mxCell id="b8vQDxdQnmlJzjC5TJmX-43" style="edgeStyle=orthogonalEdgeStyle;rounded=0;orthogonalLoop=1;jettySize=auto;html=1;entryX=0;entryY=0.5;entryDx=0;entryDy=0;exitX=0.5;exitY=1;exitDx=0;exitDy=0;" edge="1" parent="1" source="b8vQDxdQnmlJzjC5TJmX-41" target="b8vQDxdQnmlJzjC5TJmX-19">
          <mxGeometry relative="1" as="geometry" />
        </mxCell>
        <mxCell id="b8vQDxdQnmlJzjC5TJmX-46" style="edgeStyle=orthogonalEdgeStyle;rounded=0;orthogonalLoop=1;jettySize=auto;html=1;exitX=0.5;exitY=1;exitDx=0;exitDy=0;entryX=0;entryY=0.5;entryDx=0;entryDy=0;" edge="1" parent="1" source="b8vQDxdQnmlJzjC5TJmX-41" target="b8vQDxdQnmlJzjC5TJmX-26">
          <mxGeometry relative="1" as="geometry" />
        </mxCell>
        <mxCell id="b8vQDxdQnmlJzjC5TJmX-41" value="GND" style="text;html=1;strokeColor=none;fillColor=none;align=center;verticalAlign=middle;whiteSpace=wrap;rounded=0;" vertex="1" parent="1">
          <mxGeometry x="70" y="280" width="90" height="50" as="geometry" />
        </mxCell>
        <mxCell id="b8vQDxdQnmlJzjC5TJmX-51" style="edgeStyle=orthogonalEdgeStyle;rounded=0;orthogonalLoop=1;jettySize=auto;html=1;exitX=1;exitY=0.5;exitDx=0;exitDy=0;" edge="1" parent="1" source="b8vQDxdQnmlJzjC5TJmX-48" target="b8vQDxdQnmlJzjC5TJmX-29">
          <mxGeometry relative="1" as="geometry" />
        </mxCell>
        <mxCell id="b8vQDxdQnmlJzjC5TJmX-48" value="" style="triangle;whiteSpace=wrap;html=1;" vertex="1" parent="1">
          <mxGeometry x="35" y="535" width="20" height="30" as="geometry" />
        </mxCell>
        <mxCell id="b8vQDxdQnmlJzjC5TJmX-67" style="edgeStyle=orthogonalEdgeStyle;rounded=0;orthogonalLoop=1;jettySize=auto;html=1;exitX=1;exitY=0.5;exitDx=0;exitDy=0;entryX=0;entryY=0.5;entryDx=0;entryDy=0;" edge="1" parent="1" source="b8vQDxdQnmlJzjC5TJmX-62" target="b8vQDxdQnmlJzjC5TJmX-23">
          <mxGeometry relative="1" as="geometry" />
        </mxCell>
        <mxCell id="b8vQDxdQnmlJzjC5TJmX-63" value="VCC" style="text;html=1;strokeColor=none;fillColor=none;align=center;verticalAlign=middle;whiteSpace=wrap;rounded=0;" vertex="1" parent="1">
          <mxGeometry x="-50" y="290" width="60" height="30" as="geometry" />
        </mxCell>
        <mxCell id="b8vQDxdQnmlJzjC5TJmX-68" style="edgeStyle=orthogonalEdgeStyle;rounded=0;orthogonalLoop=1;jettySize=auto;html=1;exitX=0.5;exitY=0;exitDx=0;exitDy=0;entryX=0;entryY=0.5;entryDx=0;entryDy=0;" edge="1" parent="1" source="b8vQDxdQnmlJzjC5TJmX-65" target="b8vQDxdQnmlJzjC5TJmX-62">
          <mxGeometry relative="1" as="geometry" />
        </mxCell>
        <mxCell id="b8vQDxdQnmlJzjC5TJmX-70" style="edgeStyle=orthogonalEdgeStyle;rounded=0;orthogonalLoop=1;jettySize=auto;html=1;exitX=0.5;exitY=1;exitDx=0;exitDy=0;entryX=0;entryY=0.5;entryDx=0;entryDy=0;" edge="1" parent="1" source="b8vQDxdQnmlJzjC5TJmX-62" target="b8vQDxdQnmlJzjC5TJmX-27">
          <mxGeometry relative="1" as="geometry">
            <Array as="points">
              <mxPoint x="-20" y="470" />
            </Array>
          </mxGeometry>
        </mxCell>
        <mxCell id="b8vQDxdQnmlJzjC5TJmX-65" value="" style="rounded=0;whiteSpace=wrap;html=1;" vertex="1" parent="1">
          <mxGeometry x="-80" y="310" width="120" height="10" as="geometry" />
        </mxCell>
        <mxCell id="b8vQDxdQnmlJzjC5TJmX-71" value="&lt;span style=&quot;font-size: 23px&quot;&gt;MUX&lt;/span&gt;" style="text;html=1;strokeColor=none;fillColor=none;align=center;verticalAlign=middle;whiteSpace=wrap;rounded=0;" vertex="1" parent="1">
          <mxGeometry x="370" y="400" width="80" height="60" as="geometry" />
        </mxCell>
        <mxCell id="b8vQDxdQnmlJzjC5TJmX-74" value="Text" style="text;html=1;strokeColor=none;fillColor=none;align=center;verticalAlign=middle;whiteSpace=wrap;rounded=0;" vertex="1" parent="1">
          <mxGeometry x="400" y="600" width="40" height="20" as="geometry" />
        </mxCell>
        <mxCell id="b8vQDxdQnmlJzjC5TJmX-75" value="&lt;b&gt;&lt;font style=&quot;font-size: 20px&quot;&gt;Y&lt;/font&gt;&lt;/b&gt;" style="text;html=1;strokeColor=none;fillColor=none;align=center;verticalAlign=middle;whiteSpace=wrap;rounded=0;" vertex="1" parent="1">
          <mxGeometry x="500" y="480" width="80" height="55" as="geometry" />
        </mxCell>
        <mxCell id="b8vQDxdQnmlJzjC5TJmX-62" value="" style="rounded=1;whiteSpace=wrap;html=1;direction=south;" vertex="1" parent="1">
          <mxGeometry x="-35" y="330" width="30" height="30" as="geometry" />
        </mxCell>
        <mxCell id="b8vQDxdQnmlJzjC5TJmX-76" style="edgeStyle=orthogonalEdgeStyle;rounded=0;orthogonalLoop=1;jettySize=auto;html=1;exitX=0.5;exitY=1;exitDx=0;exitDy=0;entryX=0;entryY=0.5;entryDx=0;entryDy=0;" edge="1" parent="1" source="b8vQDxdQnmlJzjC5TJmX-65" target="b8vQDxdQnmlJzjC5TJmX-62">
          <mxGeometry relative="1" as="geometry">
            <mxPoint x="-20" y="320" as="sourcePoint" />
            <mxPoint x="270" y="470" as="targetPoint" />
            <Array as="points" />
          </mxGeometry>
        </mxCell>
      </root>
    </mxGraphModel>
  </diagram>
</mxfile>
